<svg height='50px' width='50px'  fill="#000000" xmlns="http://www.w3.org/2000/svg" xmlns:xlink="http://www.w3.org/1999/xlink" version="1.1" x="0px" y="0px" viewBox="0 0 100 100" enable-background="new 0 0 100 100" xml:space="preserve"><g><g><path d="M50,7c23.7,0,43,19.3,43,43S73.7,93,50,93S7,73.7,7,50S26.3,7,50,7 M50,92c23.2,0,42-18.8,42-42S73.2,8,50,8S8,26.8,8,50    S26.8,92,50,92 M50,5C25.1,5,5,25.1,5,50c0,24.9,20.1,45,45,45s45-20.1,45-45C95,25.1,74.9,5,50,5L50,5z M50,90    c-22.1,0-40-17.9-40-40c0-22.1,17.9-40,40-40s40,17.9,40,40C90,72.1,72.1,90,50,90L50,90z"></path></g><g><path d="M50,38.5c6.3,0,11.5,5.2,11.5,11.5S56.3,61.5,50,61.5S38.5,56.3,38.5,50S43.7,38.5,50,38.5 M50,57c3.9,0,7-3.1,7-7    s-3.1-7-7-7s-7,3.1-7,7S46.1,57,50,57 M50,36.5c-7.5,0-13.5,6-13.5,13.5c0,7.5,6,13.5,13.5,13.5s13.5-6,13.5-13.5    C63.5,42.5,57.5,36.5,50,36.5L50,36.5z M50,55c-2.8,0-5-2.2-5-5s2.2-5,5-5s5,2.2,5,5S52.8,55,50,55L50,55z"></path></g></g></svg>
