<svg height='50px' width='50px'  fill="#000000" xmlns="http://www.w3.org/2000/svg" xmlns:xlink="http://www.w3.org/1999/xlink" version="1.1" x="0px" y="0px" viewBox="0 0 96 96" style="enable-background:new 0 0 96 96;" xml:space="preserve"><g><g><path d="M90,80.6C90,62.6,75.4,48,57.4,48h-0.2C64.7,44.5,70,36.9,70,28c0-12.1-9.9-22-22-22s-22,9.9-22,22    c0,8.9,5.3,16.5,12.9,20h-0.2C20.6,48,6,62.6,6,80.6V90h84V80.6z M30,28c0-9.9,8.1-18,18-18s18,8.1,18,18s-8.1,18-18,18    S30,37.9,30,28z M86,86H10v-5.4C10,64.8,22.8,52,38.6,52h18.8C73.2,52,86,64.8,86,80.6V86z"></path></g></g></svg>
