<svg height='100px' width='100px'  fill="#FFFFFF" xmlns="http://www.w3.org/2000/svg" xmlns:xlink="http://www.w3.org/1999/xlink" version="1.1" x="0px" y="0px" viewBox="0 0 100 100" enable-background="new 0 0 100 100" xml:space="preserve"><g><path d="M50,1.375C23.146,1.375,1.375,23.146,1.375,50S23.146,98.625,50,98.625S98.625,76.854,98.625,50S76.854,1.375,50,1.375z    M72.181,47.753c-5.154-0.354-9.155-3.61-10.301-8.781c-1.365-6.16,0.005-13.989-6.802-15.742   c-0.001,14.31-0.001,28.619-0.002,42.93c0,0.105-0.019,0.197-0.029,0.296c-0.009,0.113-0.016,0.227-0.037,0.331   c-0.707,8.321-6.664,12.498-14.816,12.498c-7.342,0-15.4-4.674-14.875-13.125c0.804-12.946,16.496-16.424,24.758-10.147   c0-11.697,0.001-23.393,0.001-35.089c0-0.242,0.036-0.459,0.088-0.664c0.009-1.241,0.811-2.441,2.412-2.377   c5.195,0.209,9.481,2.369,12.021,7.017c2.851,5.217-0.813,17.277,7.582,17.854C75.379,42.973,75.4,47.974,72.181,47.753z"></path><path fill="none" d="M72.181,42.753c-8.396-0.577-4.731-12.638-7.582-17.854c-2.539-4.647-6.825-6.807-12.021-7.017   c-1.602-0.064-2.403,1.136-2.412,2.377c-0.052,0.205-0.088,0.422-0.088,0.664c0,11.696-0.001,23.392-0.001,35.089   c-8.262-6.277-23.954-2.799-24.758,10.147c-0.525,8.451,7.533,13.125,14.875,13.125c8.152,0,14.109-4.177,14.816-12.498   c0.021-0.104,0.028-0.218,0.037-0.331c0.011-0.099,0.029-0.19,0.029-0.296c0.001-14.311,0.001-28.62,0.002-42.93   c6.807,1.753,5.437,9.582,6.802,15.742c1.146,5.171,5.146,8.427,10.301,8.781C75.4,47.974,75.379,42.973,72.181,42.753z"></path></g></svg>