<svg height='100px' width='100px'  fill="#000000" xmlns:x="http://ns.adobe.com/Extensibility/1.0/" xmlns:i="http://ns.adobe.com/AdobeIllustrator/10.0/" xmlns:graph="http://ns.adobe.com/Graphs/1.0/" xmlns="http://www.w3.org/2000/svg" xmlns:xlink="http://www.w3.org/1999/xlink" version="1.1" x="0px" y="0px" viewBox="0 0 100 100" style="enable-background:new 0 0 100 100;" xml:space="preserve"><g><g i:extraneous="self"><g><path d="M65.8,47.5L42.7,32.1c-2-1.3-4.6,0.1-4.6,2.5v30.8c0,2.4,2.7,3.8,4.6,2.5l23.1-15.4C67.6,51.3,67.6,48.7,65.8,47.5z"></path><path d="M50,2.5C23.8,2.5,2.5,23.8,2.5,50c0,26.2,21.3,47.5,47.5,47.5S97.5,76.2,97.5,50C97.5,23.8,76.2,2.5,50,2.5z M50,90.1     c-22.1,0-40.1-18-40.1-40.1c0-22.1,18-40.1,40.1-40.1s40.1,18,40.1,40.1C90.1,72.1,72.1,90.1,50,90.1z"></path></g></g></g></svg>