<svg height='50px' width='50px'  fill="#000000" xmlns="http://www.w3.org/2000/svg" xmlns:xlink="http://www.w3.org/1999/xlink" version="1.1" x="0px" y="0px" viewBox="0 0 100 100" style="enable-background:new 0 0 100 100;" xml:space="preserve"><style type="text/css">
	.st0{fill:none;}
</style><g><rect class="st0" width="100" height="100"></rect></g><g><path d="M41.353,87.125c-8.617,0-15.627-7.011-15.627-15.627S32.736,55.87,41.353,55.87c1.37,0,2.725,0.18,4.046,0.537V12.875   h10.878l17.997,19.979v6.212L56.981,28.754v44.885l0,0C55.932,81.292,49.192,87.125,41.353,87.125z M41.353,58.409   c-7.218,0-13.089,5.871-13.089,13.089c0,7.218,5.871,13.089,13.089,13.089c6.901,0,12.632-5.399,13.047-12.292l0.042-0.704V24.284   l17.293,10.313v-0.768L55.146,15.413h-7.209v44.628l-1.74-0.694C44.639,58.725,43.009,58.409,41.353,58.409z"></path></g></svg>
